<?xml version="1.0" encoding="UTF-8"?>
<svg width="165px" height="45px" viewBox="0 0 165 45" version="1.1" xmlns="http://www.w3.org/2000/svg" xmlns:xlink="http://www.w3.org/1999/xlink">
    <!-- Generator: Sketch 62 (91390) - https://sketch.com -->
    <title>Logo</title>
    <desc>Created with Sketch.</desc>
    <g id="Page-1" stroke="none" stroke-width="1" fill="none" fill-rule="evenodd">
        <g id="Artboard" transform="translate(-105.000000, -166.000000)" fill="#FEFEFE" stroke="#FFFFFF" stroke-width="0.5">
            <g id="Logo" transform="translate(106.000000, 167.000000)">
                <path d="M51.75,6 C53.2687831,6 54.5,4.76878306 54.5,3.25 C54.5,1.73121694 53.2687831,0.5 51.75,0.5 C50.2312169,0.5 49,1.73121694 49,3.25 C49,4.76878306 50.2312169,6 51.75,6 Z M6.68075047,42.0650931 L9.24222315,42.0650931 L9.24222315,14.4881981 L17.4821924,14.4881981 L17.4821924,12.1509309 L9.24222315,12.1509309 L9.24222315,6.83454122 C9.24222315,2.33583777 12.9727565,2.33583777 14.2520792,2.33583777 C15.4776845,2.33583777 17.0920343,2.45305851 18.3176396,2.6875 L18.3176396,0.350232713 C16.7018762,0.174401596 15.1440711,0 13.9184658,0 C7.96148681,0 6.68075047,2.97912234 6.68075047,7.65222739 L6.68075047,12.1509309 L0,12.1509309 L0,14.4881981 L6.68075047,14.4881981 L6.68075047,42.0650931 Z M26.4478808,42.0650931 L29.0093534,42.0650931 L29.0093534,0.350232713 L26.4478808,0.350232713 L26.4478808,42.0650931 Z M67.2126,27.6926862 C67.1009243,18.1106051 61.4224278,11.2174535 51.5115642,11.2174535 C39.3742549,11.2174535 35.5885905,20.6237035 35.5885905,26.875 C35.5885905,36.8073138 41.7123762,43 51.4564331,43 C59.0277619,43 64.0390315,39.6692154 66.4336975,32.1327793 L63.8722248,32.1327793 C62.8699709,34.8202793 60.5869806,40.6627327 51.7349155,40.6627327 C43.1599193,40.6627327 38.3168699,35.170512 38.1500632,27.6926862 L67.2126,27.6926862 Z M38.1500632,25.3554189 C39.2625792,18.2278258 43.8836908,13.5532912 51.2330818,13.5532912 C57.8035702,13.5532912 63.260129,17.1756981 64.3175139,25.3554189 L38.1500632,25.3554189 Z M97.473462,30.8476396 C97.473462,37.9752327 89.9572643,40.6627327 84.2787678,40.6627327 C80.8267169,40.6627327 74.98,39.9622673 74.98,33.8853723 C74.98,29.3866689 78.3769199,27.9843085 83.1648382,27.6340758 L92.7972194,26.9336104 C95.2470164,26.7577793 97.4341085,27 97.4341085,27 L97.473462,30.8476396 Z M76.2607954,21.3827793 C77.0411116,16.0077793 79.3792329,13.5532912 86.8954306,13.5532912 C95.3022065,13.5532912 97.4735211,16.2994016 97.4735211,20.3306516 L97.4341676,24 L83.1648972,25.2968085 C77.374725,25.6470412 72.42,27.7512965 72.42,33.8853723 C72.42,43 81.6622231,43 84.1120201,43 C87.8425535,43 94.5233039,42.2409242 97.6968725,36.1054189 L97.8085481,36.1054189 L97.8041676,42.07 L100.034168,42.07 L100.034168,35 L100.034994,19.9804189 C100.034994,13.2616689 95.2470755,11.2174535 86.9505616,11.2174535 C78.3218479,11.2174535 74.6464456,13.8463431 73.7007363,21.3827793 L76.2607954,21.3827793 Z M117.486686,42.0650931 L120.048159,42.0650931 L134.134845,12.1509309 L131.238345,12.1509309 L118.767422,39.3775931 L106.2965,12.1509309 L103.4,12.1509309 L117.486686,42.0650931 Z M161.039354,30.8476396 C161.039354,37.9752327 153.523156,40.6627327 147.844659,40.6627327 C144.392608,40.6627327 138.545891,39.9622673 138.545891,33.8853723 C138.545891,29.3866689 141.942811,27.9843085 146.73073,27.6340758 L156.363111,26.9336104 C158.812908,26.7577793 161,27 161,27 L161.039354,30.8476396 Z M139.826628,21.3827793 C140.606944,16.0077793 142.945065,13.5532912 150.461263,13.5532912 C158.868039,13.5532912 161.039354,16.2994016 161.039354,20.3306516 L161,24 L146.73073,25.2968085 C140.940557,25.6470412 135.985832,27.7512965 135.985832,33.8853723 C135.985832,43 145.228056,43 147.677853,43 C151.408386,43 158.089136,42.2409242 161.262705,36.1054189 L161.374381,36.1054189 L161.37,42.07 L163.6,42.07 L163.6,35 L163.600826,19.9804189 C163.600826,13.2616689 158.812908,11.2174535 150.516394,11.2174535 C141.88768,11.2174535 138.212278,13.8463431 137.266569,21.3827793 L139.826628,21.3827793 Z" id="Fill-1"></path>
            </g>
        </g>
    </g>
</svg>